<mxfile host="app.diagrams.net" modified="2021-08-26T17:20:43.600Z" agent="5.0 (Windows NT 10.0; Win64; x64) AppleWebKit/537.36 (KHTML, like Gecko) Chrome/92.0.4515.159 Safari/537.36" etag="BpwsG0UlsRSUPrYa87D_" version="15.0.0" type="github">
  <diagram id="_wfkWbKzElkamheng1E5" name="Page-1">
    <mxGraphModel dx="1483" dy="827" grid="1" gridSize="10" guides="1" tooltips="1" connect="1" arrows="1" fold="1" page="1" pageScale="1" pageWidth="827" pageHeight="1169" math="0" shadow="0">
      <root>
        <mxCell id="0" />
        <mxCell id="1" parent="0" />
        <mxCell id="tYKm-1OZHqFl5Lqsl_aW-1" value="&lt;b&gt;&lt;font style=&quot;font-size: 14px&quot;&gt;USER&lt;/font&gt;&lt;/b&gt;" style="text;html=1;align=center;verticalAlign=middle;resizable=0;points=[];autosize=1;strokeColor=none;" vertex="1" parent="1">
          <mxGeometry x="155" y="50" width="50" height="20" as="geometry" />
        </mxCell>
        <mxCell id="tYKm-1OZHqFl5Lqsl_aW-2" value="&lt;b&gt;&lt;font style=&quot;font-size: 14px&quot;&gt;SYSTEM&lt;/font&gt;&lt;/b&gt;" style="text;html=1;align=center;verticalAlign=middle;resizable=0;points=[];autosize=1;strokeColor=none;" vertex="1" parent="1">
          <mxGeometry x="645" y="50" width="70" height="20" as="geometry" />
        </mxCell>
        <mxCell id="tYKm-1OZHqFl5Lqsl_aW-3" value="" style="shape=line;html=1;strokeWidth=6;" vertex="1" parent="1">
          <mxGeometry x="32.5" y="590" width="607.5" height="10" as="geometry" />
        </mxCell>
        <mxCell id="tYKm-1OZHqFl5Lqsl_aW-5" value="" style="endArrow=classic;html=1;" edge="1" parent="1">
          <mxGeometry width="50" height="50" relative="1" as="geometry">
            <mxPoint x="280" y="80" as="sourcePoint" />
            <mxPoint x="280" y="100" as="targetPoint" />
          </mxGeometry>
        </mxCell>
        <mxCell id="tYKm-1OZHqFl5Lqsl_aW-6" value="" style="endArrow=classic;html=1;" edge="1" parent="1">
          <mxGeometry width="50" height="50" relative="1" as="geometry">
            <mxPoint x="42" y="104" as="sourcePoint" />
            <mxPoint x="42" y="124" as="targetPoint" />
          </mxGeometry>
        </mxCell>
        <mxCell id="tYKm-1OZHqFl5Lqsl_aW-7" value="" style="endArrow=classic;html=1;" edge="1" parent="1">
          <mxGeometry width="50" height="50" relative="1" as="geometry">
            <mxPoint x="120" y="106" as="sourcePoint" />
            <mxPoint x="120" y="126" as="targetPoint" />
          </mxGeometry>
        </mxCell>
        <mxCell id="tYKm-1OZHqFl5Lqsl_aW-8" value="" style="endArrow=classic;html=1;" edge="1" parent="1">
          <mxGeometry width="50" height="50" relative="1" as="geometry">
            <mxPoint x="200" y="107" as="sourcePoint" />
            <mxPoint x="200" y="127" as="targetPoint" />
          </mxGeometry>
        </mxCell>
        <mxCell id="tYKm-1OZHqFl5Lqsl_aW-9" value="" style="endArrow=classic;html=1;" edge="1" parent="1">
          <mxGeometry width="50" height="50" relative="1" as="geometry">
            <mxPoint x="280" y="107" as="sourcePoint" />
            <mxPoint x="280" y="127" as="targetPoint" />
          </mxGeometry>
        </mxCell>
        <mxCell id="tYKm-1OZHqFl5Lqsl_aW-10" value="" style="endArrow=classic;html=1;" edge="1" parent="1">
          <mxGeometry width="50" height="50" relative="1" as="geometry">
            <mxPoint x="379.5" y="105" as="sourcePoint" />
            <mxPoint x="379.5" y="125" as="targetPoint" />
          </mxGeometry>
        </mxCell>
        <mxCell id="tYKm-1OZHqFl5Lqsl_aW-11" value="" style="endArrow=classic;html=1;" edge="1" parent="1">
          <mxGeometry width="50" height="50" relative="1" as="geometry">
            <mxPoint x="440" y="106" as="sourcePoint" />
            <mxPoint x="440" y="126" as="targetPoint" />
          </mxGeometry>
        </mxCell>
        <mxCell id="tYKm-1OZHqFl5Lqsl_aW-12" value="" style="endArrow=classic;html=1;" edge="1" parent="1">
          <mxGeometry width="50" height="50" relative="1" as="geometry">
            <mxPoint x="520" y="107" as="sourcePoint" />
            <mxPoint x="520" y="127" as="targetPoint" />
          </mxGeometry>
        </mxCell>
        <mxCell id="tYKm-1OZHqFl5Lqsl_aW-13" value="Manage Regular Trip" style="ellipse;whiteSpace=wrap;html=1;strokeColor=#000000;" vertex="1" parent="1">
          <mxGeometry x="10" y="125" width="70" height="60" as="geometry" />
        </mxCell>
        <mxCell id="tYKm-1OZHqFl5Lqsl_aW-14" value="Arrange Schedule" style="ellipse;whiteSpace=wrap;html=1;strokeColor=#000000;" vertex="1" parent="1">
          <mxGeometry x="86" y="125" width="70" height="60" as="geometry" />
        </mxCell>
        <mxCell id="tYKm-1OZHqFl5Lqsl_aW-15" value="Manage Driver &amp;amp; Transport" style="ellipse;whiteSpace=wrap;html=1;strokeColor=#000000;" vertex="1" parent="1">
          <mxGeometry x="170" y="125" width="70" height="60" as="geometry" />
        </mxCell>
        <mxCell id="tYKm-1OZHqFl5Lqsl_aW-16" value="Request to See Office Employee List" style="ellipse;whiteSpace=wrap;html=1;strokeColor=#000000;" vertex="1" parent="1">
          <mxGeometry x="245" y="125" width="95" height="75" as="geometry" />
        </mxCell>
        <mxCell id="tYKm-1OZHqFl5Lqsl_aW-17" value="" style="endArrow=classic;html=1;" edge="1" parent="1">
          <mxGeometry width="50" height="50" relative="1" as="geometry">
            <mxPoint x="205" y="185" as="sourcePoint" />
            <mxPoint x="205" y="205" as="targetPoint" />
          </mxGeometry>
        </mxCell>
        <mxCell id="tYKm-1OZHqFl5Lqsl_aW-18" value="" style="endArrow=classic;html=1;" edge="1" parent="1">
          <mxGeometry width="50" height="50" relative="1" as="geometry">
            <mxPoint x="120.5" y="185" as="sourcePoint" />
            <mxPoint x="120.5" y="205" as="targetPoint" />
          </mxGeometry>
        </mxCell>
        <mxCell id="tYKm-1OZHqFl5Lqsl_aW-19" value="" style="endArrow=classic;html=1;" edge="1" parent="1">
          <mxGeometry width="50" height="50" relative="1" as="geometry">
            <mxPoint x="44.5" y="185" as="sourcePoint" />
            <mxPoint x="44.5" y="205" as="targetPoint" />
          </mxGeometry>
        </mxCell>
        <mxCell id="tYKm-1OZHqFl5Lqsl_aW-20" value="" style="shape=line;html=1;strokeWidth=6;" vertex="1" parent="1">
          <mxGeometry x="40" y="200" width="170" height="10" as="geometry" />
        </mxCell>
        <mxCell id="tYKm-1OZHqFl5Lqsl_aW-21" value="" style="endArrow=classic;html=1;" edge="1" parent="1">
          <mxGeometry width="50" height="50" relative="1" as="geometry">
            <mxPoint x="204.5" y="200" as="sourcePoint" />
            <mxPoint x="204.5" y="220" as="targetPoint" />
          </mxGeometry>
        </mxCell>
        <mxCell id="tYKm-1OZHqFl5Lqsl_aW-22" value="" style="endArrow=classic;html=1;" edge="1" parent="1">
          <mxGeometry width="50" height="50" relative="1" as="geometry">
            <mxPoint x="120.5" y="200" as="sourcePoint" />
            <mxPoint x="120.5" y="220" as="targetPoint" />
          </mxGeometry>
        </mxCell>
        <mxCell id="tYKm-1OZHqFl5Lqsl_aW-23" value="" style="endArrow=classic;html=1;" edge="1" parent="1">
          <mxGeometry width="50" height="50" relative="1" as="geometry">
            <mxPoint x="44.5" y="200" as="sourcePoint" />
            <mxPoint x="44.5" y="220" as="targetPoint" />
          </mxGeometry>
        </mxCell>
        <mxCell id="tYKm-1OZHqFl5Lqsl_aW-24" value="Insert Info" style="ellipse;whiteSpace=wrap;html=1;strokeColor=#000000;" vertex="1" parent="1">
          <mxGeometry x="16" y="220" width="54" height="30" as="geometry" />
        </mxCell>
        <mxCell id="tYKm-1OZHqFl5Lqsl_aW-25" value="Update Info" style="ellipse;whiteSpace=wrap;html=1;strokeColor=#000000;" vertex="1" parent="1">
          <mxGeometry x="90" y="220" width="60" height="30" as="geometry" />
        </mxCell>
        <mxCell id="tYKm-1OZHqFl5Lqsl_aW-26" value="Delete" style="ellipse;whiteSpace=wrap;html=1;strokeColor=#000000;" vertex="1" parent="1">
          <mxGeometry x="185" y="220" width="40" height="30" as="geometry" />
        </mxCell>
        <mxCell id="tYKm-1OZHqFl5Lqsl_aW-27" value="" style="endArrow=classic;html=1;" edge="1" parent="1">
          <mxGeometry width="50" height="50" relative="1" as="geometry">
            <mxPoint x="204.5" y="250" as="sourcePoint" />
            <mxPoint x="204.5" y="270" as="targetPoint" />
          </mxGeometry>
        </mxCell>
        <mxCell id="tYKm-1OZHqFl5Lqsl_aW-28" value="" style="endArrow=classic;html=1;" edge="1" parent="1">
          <mxGeometry width="50" height="50" relative="1" as="geometry">
            <mxPoint x="120.5" y="250" as="sourcePoint" />
            <mxPoint x="120.5" y="270" as="targetPoint" />
          </mxGeometry>
        </mxCell>
        <mxCell id="tYKm-1OZHqFl5Lqsl_aW-29" value="" style="endArrow=classic;html=1;" edge="1" parent="1">
          <mxGeometry width="50" height="50" relative="1" as="geometry">
            <mxPoint x="42.5" y="250" as="sourcePoint" />
            <mxPoint x="42.5" y="270" as="targetPoint" />
          </mxGeometry>
        </mxCell>
        <mxCell id="tYKm-1OZHqFl5Lqsl_aW-30" value="" style="shape=line;html=1;strokeWidth=6;" vertex="1" parent="1">
          <mxGeometry x="40" y="270" width="170" height="10" as="geometry" />
        </mxCell>
        <mxCell id="tYKm-1OZHqFl5Lqsl_aW-31" value="" style="endArrow=classic;html=1;exitX=0.459;exitY=0.34;exitDx=0;exitDy=0;exitPerimeter=0;" edge="1" parent="1" source="tYKm-1OZHqFl5Lqsl_aW-30">
          <mxGeometry width="50" height="50" relative="1" as="geometry">
            <mxPoint x="270" y="350" as="sourcePoint" />
            <mxPoint x="40" y="590" as="targetPoint" />
            <Array as="points">
              <mxPoint x="118" y="300" />
              <mxPoint x="40" y="300" />
            </Array>
          </mxGeometry>
        </mxCell>
        <mxCell id="tYKm-1OZHqFl5Lqsl_aW-32" value="" style="endArrow=classic;html=1;exitX=0.5;exitY=1;exitDx=0;exitDy=0;" edge="1" parent="1" source="tYKm-1OZHqFl5Lqsl_aW-16">
          <mxGeometry width="50" height="50" relative="1" as="geometry">
            <mxPoint x="270" y="60" as="sourcePoint" />
            <mxPoint x="680" y="290" as="targetPoint" />
            <Array as="points">
              <mxPoint x="290" y="290" />
            </Array>
          </mxGeometry>
        </mxCell>
        <mxCell id="tYKm-1OZHqFl5Lqsl_aW-33" value="Show The List" style="ellipse;whiteSpace=wrap;html=1;strokeColor=#000000;" vertex="1" parent="1">
          <mxGeometry x="680" y="260" width="50" height="50" as="geometry" />
        </mxCell>
        <mxCell id="tYKm-1OZHqFl5Lqsl_aW-34" value="" style="endArrow=classic;html=1;exitX=0.5;exitY=1;exitDx=0;exitDy=0;" edge="1" parent="1" source="tYKm-1OZHqFl5Lqsl_aW-33">
          <mxGeometry width="50" height="50" relative="1" as="geometry">
            <mxPoint x="270" y="360" as="sourcePoint" />
            <mxPoint x="50" y="590" as="targetPoint" />
            <Array as="points">
              <mxPoint x="50" y="310" />
            </Array>
          </mxGeometry>
        </mxCell>
        <mxCell id="tYKm-1OZHqFl5Lqsl_aW-35" value="Request to see Review" style="ellipse;whiteSpace=wrap;html=1;strokeColor=#000000;" vertex="1" parent="1">
          <mxGeometry x="354" y="125" width="60" height="45" as="geometry" />
        </mxCell>
        <mxCell id="tYKm-1OZHqFl5Lqsl_aW-36" value="" style="endArrow=classic;html=1;" edge="1" parent="1">
          <mxGeometry width="50" height="50" relative="1" as="geometry">
            <mxPoint x="380" y="170" as="sourcePoint" />
            <mxPoint x="680" y="240" as="targetPoint" />
            <Array as="points">
              <mxPoint x="380" y="240" />
            </Array>
          </mxGeometry>
        </mxCell>
        <mxCell id="tYKm-1OZHqFl5Lqsl_aW-37" value="Show Reviews" style="ellipse;whiteSpace=wrap;html=1;strokeColor=#000000;" vertex="1" parent="1">
          <mxGeometry x="680" y="210" width="50" height="40" as="geometry" />
        </mxCell>
        <mxCell id="tYKm-1OZHqFl5Lqsl_aW-38" value="" style="endArrow=classic;html=1;exitX=1;exitY=0.5;exitDx=0;exitDy=0;" edge="1" parent="1" source="tYKm-1OZHqFl5Lqsl_aW-37">
          <mxGeometry width="50" height="50" relative="1" as="geometry">
            <mxPoint x="270" y="310" as="sourcePoint" />
            <mxPoint x="60" y="590" as="targetPoint" />
            <Array as="points">
              <mxPoint x="760" y="230" />
              <mxPoint x="760" y="320" />
              <mxPoint x="60" y="320" />
            </Array>
          </mxGeometry>
        </mxCell>
        <mxCell id="tYKm-1OZHqFl5Lqsl_aW-39" value="Request to Generate Reports" style="ellipse;whiteSpace=wrap;html=1;strokeColor=#000000;" vertex="1" parent="1">
          <mxGeometry x="414" y="130" width="76" height="60" as="geometry" />
        </mxCell>
        <mxCell id="tYKm-1OZHqFl5Lqsl_aW-41" value="Show Option Generate Reports" style="ellipse;whiteSpace=wrap;html=1;strokeColor=#000000;" vertex="1" parent="1">
          <mxGeometry x="680" y="167" width="100" height="40" as="geometry" />
        </mxCell>
        <mxCell id="tYKm-1OZHqFl5Lqsl_aW-42" value="" style="endArrow=classic;html=1;exitX=1;exitY=0.5;exitDx=0;exitDy=0;" edge="1" parent="1" source="tYKm-1OZHqFl5Lqsl_aW-41">
          <mxGeometry width="50" height="50" relative="1" as="geometry">
            <mxPoint x="710" y="310" as="sourcePoint" />
            <mxPoint x="560" y="360" as="targetPoint" />
            <Array as="points">
              <mxPoint x="780" y="360" />
            </Array>
          </mxGeometry>
        </mxCell>
        <mxCell id="tYKm-1OZHqFl5Lqsl_aW-43" value="Click on That" style="ellipse;whiteSpace=wrap;html=1;strokeColor=#000000;" vertex="1" parent="1">
          <mxGeometry x="510" y="330" width="50" height="40" as="geometry" />
        </mxCell>
        <mxCell id="tYKm-1OZHqFl5Lqsl_aW-45" value="" style="endArrow=classic;html=1;exitX=0;exitY=0.5;exitDx=0;exitDy=0;" edge="1" parent="1" source="tYKm-1OZHqFl5Lqsl_aW-43">
          <mxGeometry width="50" height="50" relative="1" as="geometry">
            <mxPoint x="710" y="310" as="sourcePoint" />
            <mxPoint x="490" y="350" as="targetPoint" />
          </mxGeometry>
        </mxCell>
        <mxCell id="tYKm-1OZHqFl5Lqsl_aW-46" value="Select Date" style="ellipse;whiteSpace=wrap;html=1;strokeColor=#000000;" vertex="1" parent="1">
          <mxGeometry x="440" y="330" width="50" height="40" as="geometry" />
        </mxCell>
        <mxCell id="tYKm-1OZHqFl5Lqsl_aW-48" value="" style="endArrow=classic;html=1;exitX=0;exitY=0.5;exitDx=0;exitDy=0;" edge="1" parent="1">
          <mxGeometry width="50" height="50" relative="1" as="geometry">
            <mxPoint x="440" y="349.5" as="sourcePoint" />
            <mxPoint x="420" y="349.5" as="targetPoint" />
          </mxGeometry>
        </mxCell>
        <mxCell id="tYKm-1OZHqFl5Lqsl_aW-49" value="Write Summary" style="ellipse;whiteSpace=wrap;html=1;strokeColor=#000000;" vertex="1" parent="1">
          <mxGeometry x="350" y="330" width="70" height="40" as="geometry" />
        </mxCell>
        <mxCell id="tYKm-1OZHqFl5Lqsl_aW-50" value="" style="endArrow=classic;html=1;" edge="1" parent="1">
          <mxGeometry width="50" height="50" relative="1" as="geometry">
            <mxPoint x="384.5" y="370" as="sourcePoint" />
            <mxPoint x="384.5" y="390" as="targetPoint" />
          </mxGeometry>
        </mxCell>
        <mxCell id="tYKm-1OZHqFl5Lqsl_aW-51" value="Click Print Button" style="ellipse;whiteSpace=wrap;html=1;strokeColor=#000000;" vertex="1" parent="1">
          <mxGeometry x="350" y="390" width="70" height="40" as="geometry" />
        </mxCell>
        <mxCell id="tYKm-1OZHqFl5Lqsl_aW-52" value="" style="endArrow=classic;html=1;exitX=1;exitY=0.5;exitDx=0;exitDy=0;" edge="1" parent="1" source="tYKm-1OZHqFl5Lqsl_aW-51">
          <mxGeometry width="50" height="50" relative="1" as="geometry">
            <mxPoint x="380" y="310" as="sourcePoint" />
            <mxPoint x="680" y="410" as="targetPoint" />
          </mxGeometry>
        </mxCell>
        <mxCell id="tYKm-1OZHqFl5Lqsl_aW-53" value="Print" style="ellipse;whiteSpace=wrap;html=1;strokeColor=#000000;" vertex="1" parent="1">
          <mxGeometry x="680" y="390" width="70" height="40" as="geometry" />
        </mxCell>
        <mxCell id="tYKm-1OZHqFl5Lqsl_aW-54" value="" style="endArrow=classic;html=1;exitX=0.5;exitY=1;exitDx=0;exitDy=0;" edge="1" parent="1" source="tYKm-1OZHqFl5Lqsl_aW-53">
          <mxGeometry width="50" height="50" relative="1" as="geometry">
            <mxPoint x="380" y="420" as="sourcePoint" />
            <mxPoint x="240" y="590" as="targetPoint" />
            <Array as="points">
              <mxPoint x="715" y="480" />
              <mxPoint x="240" y="480" />
            </Array>
          </mxGeometry>
        </mxCell>
        <mxCell id="tYKm-1OZHqFl5Lqsl_aW-55" value="Request to See Account Info" style="ellipse;whiteSpace=wrap;html=1;strokeColor=#000000;" vertex="1" parent="1">
          <mxGeometry x="499" y="132.5" width="76" height="60" as="geometry" />
        </mxCell>
        <mxCell id="tYKm-1OZHqFl5Lqsl_aW-56" value="" style="endArrow=classic;html=1;exitX=0.5;exitY=1;exitDx=0;exitDy=0;" edge="1" parent="1" source="tYKm-1OZHqFl5Lqsl_aW-39">
          <mxGeometry width="50" height="50" relative="1" as="geometry">
            <mxPoint x="380" y="190" as="sourcePoint" />
            <mxPoint x="680" y="190" as="targetPoint" />
            <Array as="points">
              <mxPoint x="452" y="210" />
              <mxPoint x="650" y="210" />
              <mxPoint x="650" y="190" />
            </Array>
          </mxGeometry>
        </mxCell>
        <mxCell id="tYKm-1OZHqFl5Lqsl_aW-57" value="" style="endArrow=classic;html=1;exitX=1;exitY=0.5;exitDx=0;exitDy=0;" edge="1" parent="1" source="tYKm-1OZHqFl5Lqsl_aW-55">
          <mxGeometry width="50" height="50" relative="1" as="geometry">
            <mxPoint x="380" y="190" as="sourcePoint" />
            <mxPoint x="680" y="140" as="targetPoint" />
            <Array as="points">
              <mxPoint x="630" y="160" />
              <mxPoint x="630" y="140" />
            </Array>
          </mxGeometry>
        </mxCell>
        <mxCell id="tYKm-1OZHqFl5Lqsl_aW-58" value="Show Account Info" style="ellipse;whiteSpace=wrap;html=1;strokeColor=#000000;" vertex="1" parent="1">
          <mxGeometry x="680" y="120" width="76" height="40" as="geometry" />
        </mxCell>
        <mxCell id="tYKm-1OZHqFl5Lqsl_aW-59" value="" style="endArrow=classic;html=1;exitX=1;exitY=0.5;exitDx=0;exitDy=0;" edge="1" parent="1" source="tYKm-1OZHqFl5Lqsl_aW-58">
          <mxGeometry width="50" height="50" relative="1" as="geometry">
            <mxPoint x="380" y="300" as="sourcePoint" />
            <mxPoint x="560" y="520" as="targetPoint" />
            <Array as="points">
              <mxPoint x="790" y="140" />
              <mxPoint x="790" y="520" />
            </Array>
          </mxGeometry>
        </mxCell>
        <mxCell id="tYKm-1OZHqFl5Lqsl_aW-60" value="Update Account" style="ellipse;whiteSpace=wrap;html=1;strokeColor=#000000;" vertex="1" parent="1">
          <mxGeometry x="499" y="500" width="60" height="40" as="geometry" />
        </mxCell>
        <mxCell id="tYKm-1OZHqFl5Lqsl_aW-61" value="" style="endArrow=classic;html=1;exitX=0.5;exitY=1;exitDx=0;exitDy=0;" edge="1" parent="1" source="tYKm-1OZHqFl5Lqsl_aW-60">
          <mxGeometry width="50" height="50" relative="1" as="geometry">
            <mxPoint x="380" y="750" as="sourcePoint" />
            <mxPoint x="529" y="590" as="targetPoint" />
          </mxGeometry>
        </mxCell>
        <mxCell id="tYKm-1OZHqFl5Lqsl_aW-62" value="" style="shape=line;html=1;strokeWidth=6;" vertex="1" parent="1">
          <mxGeometry x="32.5" y="99" width="527.5" height="10" as="geometry" />
        </mxCell>
        <mxCell id="tYKm-1OZHqFl5Lqsl_aW-63" value="" style="endArrow=none;html=1;" edge="1" parent="1">
          <mxGeometry width="50" height="50" relative="1" as="geometry">
            <mxPoint x="640" y="640" as="sourcePoint" />
            <mxPoint x="640" y="40" as="targetPoint" />
          </mxGeometry>
        </mxCell>
        <mxCell id="tYKm-1OZHqFl5Lqsl_aW-64" value="" style="endArrow=classic;html=1;exitX=0.542;exitY=0.986;exitDx=0;exitDy=0;exitPerimeter=0;" edge="1" parent="1">
          <mxGeometry width="50" height="50" relative="1" as="geometry">
            <mxPoint x="361.7650000000001" y="597.8600000000001" as="sourcePoint" />
            <mxPoint x="362" y="638" as="targetPoint" />
          </mxGeometry>
        </mxCell>
        <mxCell id="tYKm-1OZHqFl5Lqsl_aW-65" value="" style="ellipse;html=1;shape=endState;fillColor=#000000;strokeColor=#ff0000;" vertex="1" parent="1">
          <mxGeometry x="347" y="643" width="30" height="30" as="geometry" />
        </mxCell>
      </root>
    </mxGraphModel>
  </diagram>
</mxfile>
